<mxfile host="app.diagrams.net" modified="2020-09-09T18:04:45.680Z" agent="5.0 (X11)" etag="sf8pSQ93bT_tx5wjTy-X" version="13.6.9" type="github">
  <diagram id="2xZJa5160uBqAZfmJFkE" name="Page-1">
    <mxGraphModel dx="1185" dy="669" grid="1" gridSize="10" guides="1" tooltips="1" connect="1" arrows="1" fold="1" page="1" pageScale="1" pageWidth="850" pageHeight="1100" math="0" shadow="0">
      <root>
        <mxCell id="0" />
        <mxCell id="1" parent="0" />
        <mxCell id="sL65Gn8_P3qc4kAzONEz-1" value="&lt;div style=&quot;font-size: 20px&quot;&gt;&amp;nbsp;Execution &lt;br style=&quot;font-size: 20px&quot;&gt;&lt;/div&gt;&lt;div style=&quot;font-size: 20px&quot;&gt;&amp;nbsp;Layer&lt;/div&gt;" style="rounded=1;whiteSpace=wrap;html=1;strokeWidth=2;align=left;fontSize=20;fontFamily=Courier New;arcSize=8;" vertex="1" parent="1">
          <mxGeometry x="190" y="140" width="380" height="70" as="geometry" />
        </mxCell>
        <mxCell id="sL65Gn8_P3qc4kAzONEz-4" value="&lt;div&gt;&amp;nbsp;Data&lt;/div&gt;&lt;div&gt;&amp;nbsp;Model&lt;br&gt;&lt;/div&gt;" style="rounded=1;whiteSpace=wrap;html=1;strokeWidth=2;align=left;fontSize=20;fontFamily=Courier New;arcSize=8;" vertex="1" parent="1">
          <mxGeometry x="190" y="220" width="380" height="70" as="geometry" />
        </mxCell>
        <mxCell id="sL65Gn8_P3qc4kAzONEz-5" value="&lt;div style=&quot;font-size: 20px&quot;&gt;&amp;nbsp;Consensus&lt;/div&gt;&lt;div style=&quot;font-size: 20px&quot;&gt;&amp;nbsp;Layer&lt;br&gt;&lt;/div&gt;" style="rounded=1;whiteSpace=wrap;html=1;strokeWidth=2;align=left;fontSize=20;fontFamily=Courier New;arcSize=8;" vertex="1" parent="1">
          <mxGeometry x="190" y="300" width="380" height="70" as="geometry" />
        </mxCell>
        <mxCell id="sL65Gn8_P3qc4kAzONEz-7" value="YCSB" style="rounded=1;whiteSpace=wrap;html=1;strokeWidth=2;align=center;fontSize=20;fontFamily=Courier New;arcSize=8;perimeterSpacing=0;fillColor=none;verticalAlign=top;" vertex="1" parent="1">
          <mxGeometry x="330" y="100" width="80" height="280" as="geometry" />
        </mxCell>
        <mxCell id="sL65Gn8_P3qc4kAzONEz-9" value="OLPT" style="rounded=1;whiteSpace=wrap;html=1;strokeWidth=2;align=center;fontSize=20;fontFamily=Courier New;arcSize=8;perimeterSpacing=0;fillColor=none;verticalAlign=top;" vertex="1" parent="1">
          <mxGeometry x="420" y="100" width="80" height="280" as="geometry" />
        </mxCell>
        <mxCell id="sL65Gn8_P3qc4kAzONEz-12" value="" style="group" vertex="1" connectable="0" parent="1">
          <mxGeometry x="510" y="147.5" width="170" height="215" as="geometry" />
        </mxCell>
        <mxCell id="sL65Gn8_P3qc4kAzONEz-6" value="&lt;div style=&quot;font-size: 20px&quot;&gt;&amp;nbsp;CPU&amp;nbsp; &lt;br style=&quot;font-size: 20px&quot;&gt;&lt;/div&gt;&lt;div style=&quot;font-size: 20px&quot;&gt;&amp;nbsp;Heavy&amp;nbsp; &lt;br&gt;&lt;/div&gt;" style="rounded=1;whiteSpace=wrap;html=1;strokeWidth=2;align=right;fontSize=20;fontFamily=Courier New;arcSize=8;perimeterSpacing=0;fillColor=none;" vertex="1" parent="sL65Gn8_P3qc4kAzONEz-12">
          <mxGeometry width="170" height="55" as="geometry" />
        </mxCell>
        <mxCell id="sL65Gn8_P3qc4kAzONEz-10" value="&lt;div style=&quot;font-size: 20px&quot;&gt;&amp;nbsp;IO&amp;nbsp; &lt;br style=&quot;font-size: 20px&quot;&gt;&lt;/div&gt;&lt;div style=&quot;font-size: 20px&quot;&gt;&amp;nbsp;Heavy&amp;nbsp; &lt;br&gt;&lt;/div&gt;" style="rounded=1;whiteSpace=wrap;html=1;strokeWidth=2;align=right;fontSize=20;fontFamily=Courier New;arcSize=8;perimeterSpacing=0;fillColor=none;" vertex="1" parent="sL65Gn8_P3qc4kAzONEz-12">
          <mxGeometry y="80" width="170" height="55" as="geometry" />
        </mxCell>
        <mxCell id="sL65Gn8_P3qc4kAzONEz-11" value="&lt;div style=&quot;font-size: 20px&quot;&gt;&amp;nbsp;Do&amp;nbsp; &lt;br style=&quot;font-size: 20px&quot;&gt;&lt;/div&gt;&lt;div style=&quot;font-size: 20px&quot;&gt;&amp;nbsp;Nothing&amp;nbsp; &lt;br&gt;&lt;/div&gt;" style="rounded=1;whiteSpace=wrap;html=1;strokeWidth=2;align=right;fontSize=20;fontFamily=Courier New;arcSize=8;perimeterSpacing=0;fillColor=none;" vertex="1" parent="sL65Gn8_P3qc4kAzONEz-12">
          <mxGeometry y="160" width="170" height="55" as="geometry" />
        </mxCell>
      </root>
    </mxGraphModel>
  </diagram>
</mxfile>
